<svg width="358" height="247" viewBox="0 0 358 247" fill="none" xmlns="http://www.w3.org/2000/svg">
<path d="M0.0160716 54.9261C0.0483157 44.0375 3.31055 33.4024 9.39059 24.3645C15.4706 15.3267 24.0958 8.29137 34.1768 4.14679C44.2578 0.00220784 55.3423 -1.06547 66.0305 1.07851C76.7187 3.2225 86.5311 8.4818 94.2283 16.1926C101.925 23.9034 107.162 33.7196 109.277 44.4014C111.392 55.0831 110.29 66.1512 106.111 76.2079C101.932 86.2646 94.8625 94.8591 85.796 100.905C76.7294 106.951 66.0724 110.178 55.1708 110.178C47.871 110.334 40.6153 109.011 33.8421 106.287C27.0689 103.564 20.9188 99.4973 15.7636 94.333C10.6083 89.1686 6.55493 83.0137 3.84828 76.2406C1.14164 69.4675 -0.162025 62.2166 0.0160716 54.9261ZM92.1632 54.9261C92.1632 30.555 76.6266 15.3553 55.1785 15.3553C33.7303 15.3553 18.1939 30.5705 18.1939 54.9261C18.1939 79.2816 33.7303 94.8075 55.1785 94.8075C76.6266 94.8075 92.1632 79.2894 92.1632 54.9261Z" fill="#161615"/>
<path d="M115.289 82.8581H133.63C134.334 86.7479 136.49 90.2257 139.663 92.5891C142.835 94.9525 146.787 96.0252 150.72 95.5906C160.974 95.5906 166.42 91.2379 166.42 85.3411C166.42 68.5816 116.703 78.2028 116.703 46.8486C116.703 33.1928 129.451 22.175 149.648 22.175C169.069 22.175 181.817 32.572 182.749 49.6418H165.006C164.812 47.7538 164.24 45.9244 163.323 44.262C162.406 42.5996 161.164 41.1386 159.67 39.9657C158.176 38.7929 156.461 37.932 154.627 37.435C152.794 36.9379 150.878 36.8145 148.996 37.0722C139.519 37.0722 134.547 40.9521 134.547 46.6938C134.547 63.9266 182.873 54.2976 183.805 85.1862C183.805 99.618 171.221 110.488 151.016 110.488C130.523 110.488 116.066 98.3839 115.289 82.8581Z" fill="#161615"/>
<path d="M197.951 38.0033H187.852V23.5716H197.951V2.30442H215.818V23.5716H236.645V38.0033H215.818V85.3335C215.818 91.7037 218.304 94.3418 225.762 94.3418H236.637V109.084H222.654C207.428 109.084 197.951 102.721 197.951 85.3335V38.0033Z" fill="#161615"/>
<path d="M0 136.729H19.1177L57.0345 221.302L94.7961 136.729H113.751V244.579H96.0391V170.698L63.0939 244.579H50.8122L17.7194 170.698V244.579H0V136.729Z" fill="#161615"/>
<path d="M163.755 157.686C169.438 157.516 175.083 158.676 180.237 161.074C185.391 163.472 189.912 167.042 193.438 171.498V159.083H211.305V244.603H193.438V231.87C189.892 236.403 185.332 240.043 180.123 242.496C174.914 244.95 169.202 246.15 163.444 245.999C141.227 245.999 123.352 227.843 123.352 201.447C123.352 175.051 141.227 157.686 163.755 157.686ZM167.484 173.049C163.872 173.082 160.305 173.858 157.007 175.329C153.709 176.801 150.75 178.936 148.315 181.601C145.88 184.266 144.021 187.404 142.855 190.818C141.689 194.233 141.241 197.852 141.538 201.447C141.231 205.084 141.668 208.745 142.822 212.209C143.975 215.672 145.821 218.865 148.247 221.594C150.674 224.323 153.63 226.531 156.937 228.084C160.244 229.637 163.832 230.503 167.484 230.629C174.606 229.88 181.198 226.524 185.99 221.208C190.782 215.892 193.433 208.992 193.433 201.839C193.433 194.686 190.782 187.786 185.99 182.47C181.198 177.154 174.606 173.798 167.484 173.049Z" fill="#161615"/>
<path d="M252.624 215.576L235.223 244.603H216.735L244.39 202.541L216.735 159.091H236.777L255.273 188.117L272.674 159.091H291.154L263.492 201.308L291.154 244.611H271.105L252.624 215.576Z" fill="#161615"/>
<path d="M329.164 130.507C334.836 130.462 340.392 132.102 345.129 135.218C349.865 138.334 353.567 142.786 355.764 148.008C357.962 153.23 358.557 158.987 357.472 164.547C356.387 170.108 353.672 175.22 349.673 179.236C345.673 183.252 340.568 185.99 335.007 187.102C329.446 188.214 323.679 187.651 318.44 185.483C313.2 183.315 308.724 179.64 305.579 174.926C302.435 170.211 300.764 164.67 300.779 159.005C300.621 155.233 301.246 151.469 302.615 147.95C303.984 144.431 306.066 141.232 308.732 138.556C311.398 135.879 314.589 133.783 318.106 132.398C321.622 131.012 325.387 130.368 329.164 130.507ZM329.164 182.065C333.758 182.207 338.29 180.976 342.18 178.531C346.069 176.085 349.139 172.535 350.997 168.336C352.854 164.137 353.415 159.48 352.606 154.96C351.798 150.441 349.657 146.266 346.459 142.969C343.26 139.672 339.149 137.404 334.652 136.455C330.156 135.506 325.477 135.919 321.217 137.641C316.957 139.364 313.308 142.317 310.738 146.123C308.168 149.929 306.794 154.414 306.792 159.005C306.591 162.025 307.027 165.052 308.07 167.893C309.114 170.734 310.743 173.325 312.851 175.498C314.959 177.671 317.5 179.378 320.31 180.509C323.12 181.64 326.137 182.171 329.164 182.065ZM341.757 153.14C341.836 155.153 341.229 157.134 340.036 158.759C338.842 160.384 337.132 161.557 335.185 162.086L343.015 173.677L334.206 173.817L327.494 162.644H325.109V173.817H317.838V143.782H331.262C332.583 143.621 333.924 143.743 335.195 144.141C336.466 144.538 337.637 145.202 338.63 146.088C339.623 146.974 340.416 148.061 340.955 149.277C341.494 150.493 341.768 151.81 341.757 153.14ZM325.109 156.639H330.85C331.307 156.701 331.773 156.665 332.214 156.531C332.656 156.397 333.064 156.169 333.409 155.864C333.754 155.558 334.029 155.181 334.215 154.759C334.401 154.337 334.493 153.88 334.486 153.419C334.486 151.184 332.808 150.315 330.85 150.315H325.109V156.639Z" fill="#161615"/>
</svg>
