<svg width="88" height="16" viewBox="0 0 88 16" fill="none" xmlns="http://www.w3.org/2000/svg">
<g clip-path="url(#clip0_2_73)">
<path d="M-7.00192e-06 8.30261C0.00446 6.79414 0.456399 5.32079 1.29871 4.06872C2.14102 2.81664 3.33592 1.84199 4.73251 1.26782C6.1291 0.69364 7.66471 0.545727 9.14542 0.842748C10.6261 1.13977 11.9855 1.86837 13.0518 2.9366C14.1182 4.00483 14.8437 5.36474 15.1367 6.84456C15.4297 8.32437 15.2771 9.85771 14.6981 11.2509C14.1191 12.6442 13.1397 13.8348 11.8837 14.6724C10.6276 15.51 9.15122 15.957 7.64094 15.957C6.62966 15.9787 5.62447 15.7953 4.68614 15.418C3.7478 15.0407 2.89579 14.4774 2.1816 13.7619C1.46741 13.0465 0.905865 12.1938 0.530895 11.2555C0.155926 10.3171 -0.02468 9.31262 -7.00192e-06 8.30261ZM12.7658 8.30261C12.7658 4.92632 10.6134 2.82061 7.64201 2.82061C4.67065 2.82061 2.51829 4.92847 2.51829 8.30261C2.51829 11.6767 4.67065 13.8276 7.64201 13.8276C10.6134 13.8276 12.7658 11.6778 12.7658 8.30261Z" fill="#161615"/>
<path d="M15.9696 12.1722H18.5105C18.608 12.7111 18.9067 13.1929 19.3462 13.5203C19.7856 13.8477 20.3331 13.9963 20.8781 13.9361C22.2987 13.9361 23.0531 13.3331 23.0531 12.5162C23.0531 10.1944 16.1655 11.5273 16.1655 7.18359C16.1655 5.29175 17.9315 3.76539 20.7296 3.76539C23.42 3.76539 25.1861 5.20574 25.3152 7.57054H22.8572C22.8303 7.30899 22.751 7.05555 22.624 6.82524C22.497 6.59494 22.3249 6.39254 22.1179 6.23006C21.911 6.06757 21.6734 5.94831 21.4193 5.87945C21.1653 5.81059 20.9 5.7935 20.6392 5.8292C19.3262 5.8292 18.6375 6.36671 18.6375 7.16214C18.6375 9.54951 25.3324 8.21555 25.4616 12.4948C25.4616 14.4941 23.7181 16 20.919 16C18.08 16 16.0772 14.3231 15.9696 12.1722Z" fill="#161615"/>
<path d="M27.4213 5.95818H26.0223V3.95887H27.4213V1.01258H29.8965V3.95887H32.7818V5.95818H29.8965V12.5152C29.8965 13.3977 30.2409 13.7631 31.2741 13.7631H32.7807V15.8054H30.8436C28.7343 15.8054 27.4213 14.924 27.4213 12.5152V5.95818Z" fill="#161615"/>
<path d="M38.4835 0.86208H41.132L46.3848 12.5785L51.6162 0.86208H54.2421V15.8033H51.7884V5.56802L47.2243 15.8033H45.5228L40.9383 5.56802V15.8033H38.4835V0.86208Z" fill="#161615"/>
<path d="M61.1695 3.76537C61.9569 3.74175 62.7388 3.90249 63.4529 4.23472C64.1669 4.56695 64.7932 5.0615 65.2816 5.67874V3.95884H67.7569V15.8065H65.2816V14.0425C64.7905 14.6705 64.1587 15.1748 63.4371 15.5147C62.7154 15.8546 61.9241 16.0209 61.1265 16C58.0486 16 55.5723 13.4847 55.5723 9.82786C55.5723 6.17103 58.0486 3.76537 61.1695 3.76537ZM61.6861 5.89366C61.1857 5.89818 60.6916 6.00573 60.2347 6.20956C59.7777 6.4134 59.3678 6.70919 59.0305 7.0784C58.6932 7.4476 58.4357 7.8823 58.2742 8.35538C58.1126 8.82845 58.0505 9.32972 58.0916 9.82786C58.0492 10.3317 58.1097 10.8389 58.2695 11.3187C58.4293 11.7985 58.685 12.2409 59.0211 12.6189C59.3573 12.997 59.7668 13.3028 60.225 13.518C60.6831 13.7332 61.1802 13.8531 61.6861 13.8706C62.6728 13.7668 63.5861 13.3019 64.2499 12.5655C64.9137 11.829 65.281 10.8731 65.281 9.88212C65.281 8.89116 64.9137 7.93533 64.2499 7.19885C63.5861 6.46238 62.6728 5.9974 61.6861 5.89366Z" fill="#161615"/>
<path d="M73.4811 11.7853L71.0705 15.8065H68.5091L72.3404 9.97944L68.5091 3.95998H71.2857L73.8481 7.98118L76.2588 3.95998H78.819L74.9867 9.80853L78.819 15.8076H76.0414L73.4811 11.7853Z" fill="#161615"/>
<path d="M84.0848 -2.05492e-05C84.8705 -0.00619704 85.6403 0.220993 86.2965 0.652705C86.9526 1.08442 87.4655 1.70117 87.7699 2.42462C88.0744 3.14808 88.1567 3.9456 88.0065 4.71589C87.8562 5.48617 87.4801 6.19447 86.926 6.75082C86.3718 7.30718 85.6646 7.68648 84.8942 7.84056C84.1238 7.99464 83.3249 7.91654 82.5991 7.61618C81.8732 7.31583 81.253 6.80678 80.8174 6.15367C80.3818 5.50056 80.1503 4.73286 80.1524 3.94809C80.1306 3.42551 80.2171 2.90409 80.4068 2.41655C80.5964 1.92902 80.8849 1.4859 81.2542 1.1151C81.6235 0.744308 82.0656 0.45386 82.5528 0.261949C83.0399 0.0700377 83.5615 -0.0191566 84.0848 -2.05492e-05ZM84.0848 7.14276C84.7213 7.16245 85.3491 6.99192 85.8879 6.65307C86.4268 6.31422 86.8521 5.82248 87.1094 5.24075C87.3668 4.65901 87.4444 4.0138 87.3324 3.38774C87.2204 2.76167 86.9239 2.18322 86.4807 1.7265C86.0376 1.26977 85.4681 0.955565 84.8451 0.824071C84.2221 0.692577 83.5741 0.749803 82.9838 0.988417C82.3936 1.22703 81.8881 1.63616 81.5321 2.16344C81.1761 2.69072 80.9857 3.3121 80.9854 3.94809C80.9576 4.36638 81.018 4.78585 81.1625 5.1794C81.3071 5.57295 81.5327 5.93187 81.8248 6.23292C82.1169 6.53397 82.469 6.77046 82.8582 6.92718C83.2475 7.08389 83.6654 7.15736 84.0848 7.14276ZM85.8293 3.13548C85.8403 3.41447 85.7563 3.68892 85.5909 3.91404C85.4255 4.13915 85.1886 4.30163 84.9189 4.37486L86.0037 5.98073L84.7833 6.00008L83.8534 4.45221H83.5231V6.00008H82.5157V1.83914H84.3754C84.5585 1.81682 84.7443 1.83372 84.9203 1.88881C85.0963 1.9439 85.2585 2.03589 85.3962 2.15859C85.5338 2.28128 85.6436 2.43186 85.7183 2.60032C85.793 2.76878 85.8308 2.95124 85.8293 3.13548ZM83.5231 3.62025H84.3184C84.3817 3.62894 84.4462 3.62383 84.5074 3.60529C84.5686 3.58675 84.625 3.55522 84.6729 3.51285C84.7207 3.47048 84.7588 3.41831 84.7846 3.35985C84.8103 3.30139 84.8231 3.23804 84.822 3.17419C84.822 2.86461 84.5896 2.7442 84.3184 2.7442H83.5231V3.62025Z" fill="#161615"/>
</g>
<defs>
<clipPath id="clip0_2_73">
<rect width="88" height="16" fill="white"/>
</clipPath>
</defs>
</svg>
