<svg width="1120" height="199" viewBox="0 0 1120 199" fill="none" xmlns="http://www.w3.org/2000/svg">
<path d="M0.0276694 103.232C0.0831822 84.4861 5.69956 66.1764 16.1672 50.6165C26.6348 35.0565 41.4842 22.9443 58.8401 15.8088C76.1959 8.67335 95.2794 6.83519 113.681 10.5264C132.082 14.2175 148.975 23.2721 162.227 36.5473C175.479 49.8225 184.495 66.7226 188.136 85.1126C191.777 103.503 189.88 122.558 182.685 139.872C175.49 157.186 163.319 171.983 147.71 182.392C132.1 192.801 113.753 198.356 94.984 198.356C82.4165 198.625 69.9247 196.347 58.2638 191.658C46.6028 186.969 36.0146 179.968 27.1392 171.077C18.2637 162.186 11.2852 151.589 6.62535 139.928C1.96549 128.267 -0.278949 115.784 0.0276694 103.232ZM158.671 103.232C158.671 61.2742 131.923 35.1058 94.9973 35.1058C58.0713 35.1058 31.3233 61.3009 31.3233 103.232C31.3233 145.164 58.0713 171.894 94.9973 171.894C131.923 171.894 158.671 145.177 158.671 103.232Z" fill="#161615"/>
<path d="M198.486 151.321H230.063C231.275 158.018 234.987 164.006 240.448 168.074C245.91 172.143 252.714 173.99 259.486 173.242C277.14 173.242 286.515 165.748 286.515 155.596C286.515 126.742 200.921 143.306 200.921 89.3259C200.921 65.8155 222.867 46.8469 257.64 46.8469C291.075 46.8469 313.022 64.7466 314.627 94.1347H284.081C283.747 90.8843 282.761 87.7347 281.183 84.8726C279.605 82.0106 277.466 79.4953 274.894 77.476C272.322 75.4568 269.369 73.9747 266.212 73.119C263.055 72.2633 259.758 72.0508 256.517 72.4944C240.2 72.4944 231.641 79.1742 231.641 89.0593C231.641 118.728 314.841 102.15 316.446 155.329C316.446 180.176 294.78 198.89 259.994 198.89C224.713 198.89 199.824 178.051 198.486 151.321Z" fill="#161615"/>
<path d="M340.8 74.0974H323.414V49.2513H340.8V12.6369H371.561V49.2513H407.417V74.0974H371.561V155.583C371.561 166.55 375.84 171.092 388.679 171.092H407.403V196.472H383.33C357.117 196.472 340.8 185.519 340.8 155.583V74.0974Z" fill="#161615"/>
<path d="M497.417 10.7449H530.33L595.609 156.349L660.621 10.7449H693.254V196.423H662.761V69.227L606.041 196.423H584.897L527.923 69.227V196.423H497.417V10.7449Z" fill="#161615"/>
<path d="M779.343 46.8252C789.128 46.5317 798.845 48.5292 807.719 52.658C816.592 56.7868 824.375 62.9326 830.446 70.6032V49.2296H861.206V196.464H830.446V174.543C824.341 182.347 816.49 188.613 807.522 192.838C798.555 197.062 788.72 199.128 778.808 198.868C740.558 198.868 709.784 167.61 709.784 122.166C709.784 76.721 740.558 46.8252 779.343 46.8252ZM785.763 73.2742C779.544 73.3303 773.404 74.6668 767.725 77.1999C762.047 79.7331 756.953 83.409 752.761 87.9972C748.569 92.5854 745.369 97.9876 743.361 103.867C741.354 109.746 740.582 115.975 741.093 122.166C740.566 128.427 741.318 134.731 743.303 140.693C745.289 146.655 748.467 152.153 752.644 156.851C756.822 161.549 761.912 165.35 767.605 168.024C773.298 170.698 779.475 172.189 785.763 172.406C798.025 171.116 809.374 165.339 817.624 156.186C825.873 147.034 830.438 135.155 830.438 122.84C830.438 110.525 825.873 98.6466 817.624 89.4941C809.374 80.3417 798.025 74.5634 785.763 73.2742Z" fill="#161615"/>
<path d="M932.343 146.491L902.385 196.464H870.555L918.167 124.049L870.555 49.2435H905.06L936.904 99.216L966.862 49.2435H998.679L951.054 121.925L998.679 196.477H964.16L932.343 146.491Z" fill="#161615"/>
<path d="M1064.12 0.0315543C1073.88 -0.0452027 1083.45 2.77815 1091.6 8.14317C1099.76 13.5082 1106.13 21.1727 1109.91 30.1633C1113.7 39.1539 1114.72 49.065 1112.85 58.6376C1110.99 68.2101 1106.31 77.0123 1099.43 83.9263C1092.54 90.8403 1083.75 95.554 1074.18 97.4688C1064.6 99.3836 1054.67 98.413 1045.65 94.6804C1036.63 90.9478 1028.93 84.6217 1023.51 76.5053C1018.1 68.3889 1015.22 58.8484 1015.25 49.0959C1014.98 42.6017 1016.05 36.1218 1018.41 30.063C1020.77 24.0043 1024.35 18.4975 1028.94 13.8895C1033.53 9.28155 1039.03 5.67206 1045.08 3.28713C1051.13 0.902188 1057.61 -0.206256 1064.12 0.0315543ZM1064.12 88.797C1072.03 89.0417 1079.83 86.9225 1086.53 82.7115C1093.22 78.5005 1098.51 72.3895 1101.71 65.1601C1104.9 57.9307 1105.87 49.9126 1104.48 42.1322C1103.08 34.3519 1099.4 27.1633 1093.89 21.4875C1088.39 15.8117 1081.31 11.9069 1073.57 10.2728C1065.82 8.63867 1057.77 9.34984 1050.44 12.3152C1043.1 15.2805 1036.82 20.3649 1032.39 26.9175C1027.97 33.4702 1025.6 41.1923 1025.6 49.0959C1025.26 54.2941 1026.01 59.507 1027.8 64.3978C1029.6 69.2885 1032.4 73.749 1036.03 77.4902C1039.66 81.2314 1044.04 84.1703 1048.87 86.1179C1053.71 88.0655 1058.91 88.9785 1064.12 88.797ZM1085.8 38.9973C1085.93 42.4644 1084.89 45.8752 1082.83 48.6727C1080.78 51.4703 1077.84 53.4894 1074.48 54.3995L1087.96 74.3561L1072.8 74.5966L1061.24 55.3608H1057.14V74.5966H1044.62V22.8874H1067.73C1070 22.6099 1072.31 22.82 1074.5 23.5046C1076.69 24.1892 1078.7 25.3324 1080.41 26.8572C1082.12 28.382 1083.49 30.2532 1084.42 32.3468C1085.35 34.4403 1085.82 36.7077 1085.8 38.9973ZM1057.14 45.0217H1067.02C1067.81 45.1297 1068.61 45.0662 1069.37 44.8358C1070.13 44.6055 1070.83 44.2136 1071.43 43.687C1072.02 43.1604 1072.49 42.5122 1072.81 41.7857C1073.13 41.0592 1073.29 40.2719 1073.28 39.4784C1073.28 35.6312 1070.39 34.1347 1067.02 34.1347H1057.14V45.0217Z" fill="#161615"/>
</svg>
